<?xml version="1.0" standalone="no"?>
<!DOCTYPE svg PUBLIC "-//W3C//DTD SVG 20010904//EN"
 "http://www.w3.org/TR/2001/REC-SVG-20010904/DTD/svg10.dtd">
<svg version="1.0" xmlns="http://www.w3.org/2000/svg"
 width="3919.000000pt" height="457.000000pt" viewBox="0 0 3919.000000 457.000000"
 preserveAspectRatio="xMidYMid meet">

<g transform="translate(0.000000,457.000000) scale(0.100000,-0.100000)"
fill="#000000" stroke="none">
<path d="M0 2465 c0 -1215 4 -2105 9 -2105 5 0 31 7 57 15 92 27 1024 255
1389 340 110 26 256 60 325 76 278 65 377 88 410 94 19 4 71 15 115 25 98 23
648 145 765 170 47 10 121 26 165 35 44 9 118 25 165 35 47 10 198 41 335 69
138 28 327 67 420 86 94 20 193 40 220 45 49 8 180 32 815 150 403 75 430 80
1265 220 377 62 1404 213 1685 246 25 3 77 9 115 15 109 14 460 57 565 69 52
5 194 21 315 35 121 14 288 32 370 41 83 8 206 21 275 29 185 21 886 81 1280
109 424 31 844 54 1245 71 77 3 241 10 365 15 233 10 691 18 1415 24 472 4
1762 -19 2135 -39 41 -2 129 -6 195 -10 66 -3 212 -9 325 -15 113 -5 266 -12
340 -15 120 -5 485 -28 645 -40 33 -2 168 -11 300 -20 132 -8 267 -17 300 -20
33 -3 98 -7 145 -10 111 -7 597 -46 810 -65 58 -5 195 -16 305 -25 110 -9 225
-18 255 -20 87 -7 481 -44 755 -70 138 -14 282 -27 320 -30 96 -8 551 -53 650
-65 44 -5 112 -12 150 -15 39 -3 131 -12 205 -20 301 -33 419 -45 490 -50 41
-3 86 -8 100 -10 30 -5 479 -52 565 -59 33 -3 227 -23 430 -45 204 -22 402
-43 440 -46 39 -4 174 -17 300 -31 127 -13 280 -29 340 -34 61 -5 238 -22 395
-39 157 -16 312 -32 345 -35 33 -3 179 -17 325 -31 906 -87 1220 -116 1400
-130 36 -2 139 -11 230 -19 91 -9 201 -18 245 -21 44 -3 150 -12 235 -20 171
-16 180 -17 490 -39 118 -9 276 -20 350 -26 74 -5 169 -12 210 -15 41 -3 136
-9 210 -15 74 -5 176 -12 225 -15 50 -3 110 -7 135 -10 25 -2 99 -7 165 -10
425 -19 981 -44 1085 -50 41 -2 185 -6 320 -10 135 -3 283 -7 330 -10 448 -24
2088 -24 2670 0 201 8 439 17 530 20 566 20 1673 108 2445 195 99 11 243 27
320 35 77 9 205 24 285 35 200 27 451 60 535 70 66 9 330 48 605 91 69 10 186
28 260 39 74 11 163 25 198 31 l62 11 0 1459 0 1459 -19595 0 -19595 0 0
-2105z"/>
</g>
</svg>
